<svg width="74" height="72" xmlns="http://www.w3.org/2000/svg" xmlns:xlink="http://www.w3.org/1999/xlink"><defs><path id="a" d="M.324.931h2.504V4H.324z"/></defs><g transform="translate(0 -1)" fill="none" fill-rule="evenodd"><ellipse stroke="#FFF" fill="#FFF" cx="37" cy="37" rx="36" ry="35.5"/><path d="M10.831 31.798c2.532-14.262 16.146-23.77 30.407-21.239C55.5 13.091 65.01 26.705 62.478 40.967c-2.534 14.263-16.148 23.771-30.41 21.24C17.81 59.672 8.3 46.06 10.831 31.797" fill="#FFF"/><path d="M11.962 13.482l1.74 1.74c.204.204.413.335.626.394.319.09.614 0 .885-.273.326-.325.437-.658.333-.996-.056-.183-.187-.376-.39-.58l-1.74-1.74.385-.385 1.58 1.581c.347.346.567.66.66.94.167.512.014 1.006-.464 1.483-.476.476-.97.63-1.481.46-.28-.093-.593-.312-.94-.658l-1.581-1.58.387-.386zm5.293-1.166c.147.172.3.287.456.343.296.105.618.026.963-.24a1.57 1.57 0 00.371-.391c.178-.276.18-.53.003-.76-.13-.172-.277-.255-.438-.25-.159.01-.373.074-.64.194l-.488.22c-.32.144-.565.22-.735.23-.296.018-.544-.105-.745-.367a1.166 1.166 0 01-.249-.92c.053-.33.254-.627.605-.894.322-.248.658-.377 1.006-.388.348-.013.657.157.924.508l-.402.307c-.15-.154-.293-.25-.43-.288-.25-.07-.528.01-.827.239-.242.186-.375.372-.4.559a.643.643 0 00.123.49c.12.156.268.22.448.199.118-.017.348-.102.69-.254l.506-.226c.245-.111.456-.166.633-.167.307-.001.568.139.783.42.268.35.335.695.201 1.036-.133.34-.365.636-.694.888-.384.293-.76.422-1.13.387-.37-.034-.682-.223-.94-.567l.406-.308zm5.735-2.761a1.4 1.4 0 00.36-.26.974.974 0 00.25-.595 1.704 1.704 0 00-.095-.65 2.449 2.449 0 00-.162-.387c-.235-.434-.5-.726-.798-.875-.299-.15-.635-.122-1.009.08l-.823.444 1.45 2.69.826-.447zM20.01 7.16l1.401-.755c.475-.256.935-.285 1.382-.083.4.183.73.514.99.996.201.372.312.745.337 1.12.043.66-.232 1.153-.826 1.472l-1.395.753L20.01 7.16zm6.349-.34a1.253 1.253 0 00-.31-.425c-.206-.173-.455-.203-.744-.094a.738.738 0 00-.436.425.912.912 0 00-.004.661l1.494-.567zm-.57-1.002c.215.022.397.086.546.194.142.102.263.24.363.41.074.115.164.308.267.582l-1.972.751c.113.272.262.47.445.59.185.12.402.133.656.037a.77.77 0 00.475-.452.875.875 0 00.046-.38l.448-.172c.025.104.029.231.009.378a1.301 1.301 0 01-.11.385 1.137 1.137 0 01-.405.468 1.67 1.67 0 01-.354.18 1.21 1.21 0 01-.994-.044c-.326-.156-.573-.457-.742-.898-.166-.436-.183-.834-.051-1.196.13-.36.386-.613.766-.758.192-.073.395-.098.608-.075zm3.879 1.126c.096-.224.095-.519-.005-.885a1.58 1.58 0 00-.254-.549c-.206-.275-.472-.368-.797-.28-.328.088-.507.312-.539.671-.018.192.01.422.083.69.059.216.141.392.247.524.201.257.465.341.79.251a.684.684 0 00.475-.422zM27.301 5.23l.461-.125.101.371c.06-.153.136-.28.229-.379a1.05 1.05 0 01.518-.31c.319-.087.621-.038.91.145.288.183.492.5.615.951.167.61.124 1.09-.125 1.437a1.125 1.125 0 01-.642.442 1.02 1.02 0 01-.571.007 1.275 1.275 0 01-.354-.194l.389 1.43-.471.128-1.06-3.903zm4.197 1.5c.114.065.24.088.379.068.17-.025.329-.087.476-.19a.67.67 0 00.31-.697l-.057-.388a.81.81 0 01-.213.126 1.97 1.97 0 01-.266.094l-.286.08a1.132 1.132 0 00-.38.166c-.136.105-.191.25-.166.434.022.14.089.242.203.307zm.828-1.45c.109-.03.177-.087.202-.172a.427.427 0 00.006-.19c-.025-.166-.1-.277-.228-.334-.128-.058-.301-.07-.52-.04-.25.036-.42.13-.505.281a.695.695 0 00-.066.354l-.45.066c-.042-.356.038-.619.237-.79a1.43 1.43 0 01.738-.32c.338-.049.62-.024.85.074.228.1.36.285.4.556l.24 1.655a.22.22 0 00.048.117c.026.026.07.036.137.026a.584.584 0 00.072-.013c.027-.007.055-.014.085-.025l.05.357a1.351 1.351 0 01-.166.066 1.135 1.135 0 01-.16.031c-.166.024-.295-.019-.387-.124a.69.69 0 01-.122-.254c-.08.143-.205.275-.375.397-.17.121-.366.198-.588.23a.911.911 0 01-.687-.148.815.815 0 01-.341-.57c-.038-.266.015-.484.16-.654.145-.17.35-.292.616-.365l.754-.21zm1.514-1.373l.462-.035.039.499c.03-.1.114-.225.25-.376a.724.724 0 01.495-.248l.046-.002.11.003.04.513a.798.798 0 00-.08-.005c-.024 0-.051.002-.08.004-.243.02-.427.11-.546.279a.835.835 0 00-.156.559l.127 1.665-.487.037-.22-2.893zM36.189 3h.493v.81h.464v.398h-.464v1.896c0 .1.035.168.103.203.038.02.101.029.189.029l.075-.001a.964.964 0 00.095-.01v.389a1.094 1.094 0 01-.174.035c-.06.007-.125.01-.196.01-.228 0-.381-.058-.463-.175a.769.769 0 01-.122-.454V4.208h-.393V3.81h.393V3zm1.821.788l.48.05-.041.409c.129-.13.245-.222.344-.277a.943.943 0 01.563-.109c.23.025.409.1.537.228a.877.877 0 01.185.308c.124-.143.263-.244.416-.303.155-.059.322-.079.502-.06.388.041.638.21.749.503.06.16.078.366.05.621l-.201 1.921-.504-.051.21-2.005c.02-.192-.015-.33-.102-.411a.57.57 0 00-.341-.145.702.702 0 00-.512.14c-.151.112-.242.318-.272.616l-.176 1.68-.493-.052.197-1.884c.02-.196.012-.341-.026-.435-.06-.142-.19-.224-.391-.246a.716.716 0 00-.523.16c-.165.128-.266.376-.305.749l-.16 1.53-.486-.05.3-2.887zm6.414 2.214a1.293 1.293 0 00-.023-.524c-.08-.26-.27-.422-.572-.49a.728.728 0 00-.597.116.92.92 0 00-.368.549l1.56.349zm.077-1.15a1.1 1.1 0 01.348.463c.062.164.088.344.078.54a3.353 3.353 0 01-.098.635l-2.06-.461c-.055.29-.04.536.048.739.086.202.262.333.526.392.247.054.462.016.645-.116a.853.853 0 00.249-.293l.469.105a.987.987 0 01-.201.32c-.1.113-.2.2-.303.262a1.124 1.124 0 01-.596.166 1.7 1.7 0 01-.396-.044 1.216 1.216 0 01-.806-.583c-.186-.311-.227-.698-.124-1.16.102-.454.308-.795.617-1.024.308-.23.66-.3 1.056-.212.2.044.382.135.548.272zm1.229.255l.44.145-.129.391c.184-.119.36-.189.53-.21.169-.024.343-.006.52.053.392.128.611.35.66.67.027.174-.005.4-.096.678l-.58 1.77-.472-.156.57-1.738a.998.998 0 00.06-.432c-.026-.198-.148-.333-.364-.404a.933.933 0 00-.282-.055.737.737 0 00-.41.116.736.736 0 00-.243.233c-.055.09-.111.224-.171.405l-.474 1.444-.464-.153.904-2.757zm3.563.315l.456.188-.31.75.427.176-.152.367-.429-.177-.722 1.75c-.04.094-.033.17.017.227a.42.42 0 00.164.1c.022.01.045.018.07.027.026.01.057.018.091.028l-.148.358a1.136 1.136 0 01-.176-.034 1.737 1.737 0 01-.185-.066c-.21-.087-.331-.199-.361-.338a.77.77 0 01.06-.465l.733-1.776-.363-.15.152-.368.364.15.312-.747zm3.251 5.149c.229-.146.42-.348.577-.603.14-.23.219-.442.235-.63.022-.298-.107-.535-.391-.708-.251-.154-.494-.169-.728-.045a1.608 1.608 0 00-.6.597c-.161.264-.238.517-.23.763.007.246.134.444.382.595.276.167.526.177.755.031m1.265-1.488c.088.347.007.726-.245 1.138-.245.4-.541.67-.894.812-.352.142-.73.09-1.137-.159-.338-.207-.536-.486-.594-.837-.058-.352.03-.722.268-1.11.254-.416.563-.682.922-.8.36-.119.717-.07 1.07.146.318.193.52.464.61.81m1.728-.288c.19-.066.416-.002.678.191.024.018.05.037.074.06.026.02.054.043.085.072l-.264.357-.085-.072-.05-.04c-.12-.088-.215-.11-.285-.066-.069.045-.197.193-.383.445l.392.29-.229.31-.392-.29-1.487 2.014-.388-.287 1.484-2.015-.325-.239.23-.31.325.24.27-.367c.126-.157.242-.256.35-.293m-39.005 4.987l.442-.354.37.46-.442.355zM19.91 11.2l.452-.34.356.472-.452.34zm37.817 2.834c-.237.238-.457.387-.66.448-.368.11-.737-.018-1.104-.384a1.226 1.226 0 01-.37-.713c-.034-.264.094-.542.386-.835l.2-.201.36.359-.202.201c-.153.153-.234.303-.243.448-.01.146.059.29.203.435.204.203.407.267.609.191.124-.048.304-.19.543-.428l1.875-1.875.378.377-1.975 1.977zm2.28-.344l-1.468 1.248a.823.823 0 00-.232.287c-.076.176-.041.353.107.528.214.252.476.326.785.22.166-.056.358-.175.574-.36l1.086-.922.316.37-2.211 1.88-.3-.35.33-.273a.96.96 0 01-.362.004 1.005 1.005 0 01-.604-.36c-.262-.31-.336-.608-.221-.898.06-.157.185-.315.375-.476l1.503-1.277.322.379zm.44 3.546a.698.698 0 00-.22.327c-.049.194.022.416.211.66a.976.976 0 00.391.314.395.395 0 00.417-.055.314.314 0 00.123-.307 2.075 2.075 0 00-.149-.42l-.163-.371c-.104-.236-.163-.424-.174-.565-.026-.25.054-.446.24-.587.217-.167.453-.223.711-.167.257.055.49.217.695.486.27.35.362.683.278.995a.826.826 0 01-.307.462l-.282-.365a.543.543 0 00.165-.277c.031-.17-.04-.364-.21-.588-.117-.15-.232-.242-.346-.275a.327.327 0 00-.31.053c-.099.077-.14.188-.123.336.01.085.044.196.104.33l.138.308c.15.336.231.575.243.72.016.226-.08.42-.293.584a.893.893 0 01-.712.17c-.27-.041-.53-.224-.777-.545-.265-.348-.377-.652-.333-.916.045-.264.18-.49.4-.675l.283.368zm3.909.458l.277.408-.671.455.26.384-.331.222-.26-.384-1.567 1.061c-.084.057-.121.124-.11.2.005.043.032.1.082.175.012.02.028.04.043.061a.986.986 0 00.06.073l-.32.218a1.161 1.161 0 01-.127-.126 2.182 2.182 0 01-.12-.156c-.127-.188-.165-.35-.114-.482a.79.79 0 01.307-.356l1.59-1.076-.22-.325.33-.223.22.325.67-.454zm1.164 1.486l.254.427-.477.281-.252-.426.476-.282zm-.938.557l.252.426-2.486 1.473-.253-.427 2.487-1.472zm1.427 3.075c-.05.254-.238.487-.566.7l-.214-.424a.857.857 0 00.308-.378c.06-.144.037-.319-.065-.522-.14-.277-.375-.407-.706-.39a1.812 1.812 0 00-.708.212c-.26.131-.45.296-.571.496-.122.2-.124.416-.004.651a.63.63 0 00.38.346c.166.05.352.047.563-.009l.214.424c-.367.125-.68.13-.937.018-.256-.113-.461-.32-.613-.623-.172-.337-.185-.67-.038-.997.145-.326.404-.584.774-.77.454-.23.865-.298 1.229-.205a1.2 1.2 0 01.807.652c.148.29.197.564.147.82m.143 3.169c.19-.097.328-.202.42-.315.17-.21.195-.46.08-.747a.728.728 0 00-.433-.43.922.922 0 00-.66.007l.593 1.485zm.993-.585a1.117 1.117 0 01-.185.547 1.327 1.327 0 01-.404.37 3.385 3.385 0 01-.577.277l-.785-1.96c-.27.118-.465.27-.582.456-.118.186-.127.405-.026.656a.768.768 0 00.842.507l.178.445a.998.998 0 01-.378.016 1.326 1.326 0 01-.387-.103 1.124 1.124 0 01-.474-.398 1.626 1.626 0 01-.187-.351 1.211 1.211 0 01.027-.993c.151-.33.447-.583.885-.758.434-.173.831-.197 1.196-.072.363.126.62.377.77.753.076.192.105.394.087.608zM11.454 57.702c.119.134.23.23.335.291.19.106.402.141.639.105.19-.03.393-.11.61-.244.13-.08.243-.162.339-.248.369-.328.59-.654.667-.979.075-.324-.027-.646-.311-.964l-.623-.697-2.281 2.032.625.704zm1.64-3.45l1.059 1.188c.359.404.492.845.4 1.326-.084.432-.331.83-.74 1.194a2.724 2.724 0 01-1.012.586c-.634.194-1.176.041-1.624-.462l-1.055-1.185 2.972-2.647zm1.678 3.537l.333.323-.35.36c.095-.043.245-.064.448-.062a.724.724 0 01.513.206l.031.033c.014.017.039.045.072.086l-.359.369c-.016-.024-.033-.044-.049-.064a2.724 2.724 0 00-.056-.058c-.176-.171-.366-.246-.57-.223a.83.83 0 00-.523.253L13.1 60.209l-.349-.34 2.021-2.08zm1.815 1.661l-1.246 1.47a.845.845 0 00-.183.321c-.047.187.017.355.193.504.252.214.522.243.81.09.155-.082.323-.232.507-.448l.92-1.087.374.315-1.877 2.213-.352-.298.28-.323a.98.98 0 01-.357.063 1.016 1.016 0 01-.654-.257c-.31-.26-.431-.545-.365-.852.035-.165.132-.342.294-.529l1.276-1.506.38.324zm2.927 3.022a.707.707 0 00-.327-.529c-.284-.188-.568-.183-.851.016-.15.106-.302.275-.456.506-.18.273-.262.516-.247.733a.643.643 0 00.302.508c.29.192.583.197.876.011.165-.103.312-.256.444-.454.2-.302.287-.566.259-.79m.239-.47c.04.105.07.233.082.386l.202-.305.375.248-1.458 2.201c-.203.308-.41.52-.617.638-.385.217-.811.17-1.28-.138-.258-.171-.438-.375-.538-.61-.1-.233-.078-.482.066-.744l.413.273a.555.555 0 00-.05.329c.032.15.145.292.342.42.31.206.586.23.827.074.144-.093.323-.307.538-.642a.947.947 0 01-.475.082c-.154-.015-.325-.085-.512-.21a1.158 1.158 0 01-.501-.733c-.073-.316.034-.69.318-1.118.269-.405.576-.656.924-.753.348-.096.662-.052.94.133.192.127.325.284.404.47m3.124.427l2.608 1.244-.21.44-2.133-1.018-.52 1.09 1.971.94-.198.417-1.971-.94-.581 1.218 2.17 1.033-.205.429-2.642-1.262zm2.531 2.379l.437.15-.132.388c.184-.116.362-.184.53-.204.17-.02.344 0 .522.061.389.133.606.36.65.678.024.175-.011.402-.106.678l-.603 1.762-.47-.162.594-1.73a.984.984 0 00.064-.43c-.023-.2-.143-.337-.36-.41a.931.931 0 00-.28-.059.713.713 0 00-.41.111.73.73 0 00-.246.228 2.014 2.014 0 00-.176.403l-.493 1.437-.461-.157.94-2.745zm3.319.145c.155-.13.388-.15.702-.062l.09.028c.031.01.066.023.105.039l-.12.428c-.048-.02-.083-.03-.105-.037l-.06-.02c-.146-.04-.242-.027-.29.04-.05.066-.117.25-.202.553l.47.132-.105.37-.47-.132-.678 2.41-.465-.13.68-2.41-.39-.11.103-.37.39.11.122-.438c.062-.195.136-.33.223-.401m2.435 3.686a1.87 1.87 0 00.343-.762c.055-.264.06-.489.01-.674-.078-.288-.279-.466-.604-.535-.288-.06-.522.006-.699.2-.178.195-.3.45-.366.765-.064.302-.05.567.038.796.09.23.276.374.561.433.31.066.55-.008.717-.223m.694-1.825c.2.297.25.68.15 1.154-.096.457-.287.812-.572 1.064-.284.253-.659.33-1.124.232-.387-.082-.668-.279-.84-.59-.173-.312-.213-.69-.119-1.136.101-.476.301-.83.601-1.064.3-.23.653-.306 1.06-.22.362.076.644.264.844.56m.827-.205l.46.058-.063.497c.05-.093.156-.2.32-.32a.72.72 0 01.58-.135l.109.024-.064.511a.847.847 0 00-.157-.033c-.244-.03-.441.024-.592.165a.824.824 0 00-.264.517l-.207 1.656-.484-.06.362-2.88z" fill="#000"/><g transform="translate(34 65.812)"><mask id="b" fill="#fff"><use xlink:href="#a"/></mask><path d="M2.487 1.2c.2.167.312.444.341.834l-.474-.017a.878.878 0 00-.182-.453c-.098-.123-.26-.187-.489-.196-.31-.012-.537.132-.682.43a1.79 1.79 0 00-.156.723c-.01.291.042.536.157.741.115.202.305.308.568.318a.634.634 0 00.488-.168c.123-.118.21-.284.264-.496l.474.016c-.068.383-.214.66-.437.83-.223.17-.503.25-.84.237-.38-.015-.678-.163-.893-.448C.41 3.265.31 2.915.326 2.5c.017-.51.155-.902.412-1.176.258-.274.578-.404.96-.392.327.012.59.102.79.268" fill="#000" mask="url(#b)"/></g><path d="M39.339 67.922a1.291 1.291 0 00-.18-.494c-.15-.223-.38-.321-.69-.296a.73.73 0 00-.536.288.928.928 0 00-.187.636l1.593-.134zm-.27-1.121c.2.08.357.193.469.338.11.138.187.304.236.494.04.13.072.342.096.634l-2.103.176c.033.292.12.523.264.69.144.168.35.24.62.218a.773.773 0 00.583-.302.863.863 0 00.149-.355l.477-.04a.973.973 0 01-.095.366c-.06.136-.131.249-.211.339a1.126 1.126 0 01-.52.336 1.625 1.625 0 01-.39.076 1.21 1.21 0 01-.943-.318c-.27-.242-.425-.597-.465-1.07-.038-.465.056-.853.282-1.162.227-.312.542-.483.946-.516a1.31 1.31 0 01.605.096zm1.111-.118l.474-.096.08.407c.086-.164.168-.287.247-.37a.946.946 0 01.505-.267c.226-.045.42-.026.58.057.092.049.18.128.269.24a1.05 1.05 0 01.308-.413c.129-.103.283-.172.462-.209.383-.076.67.01.864.259.104.135.182.327.232.579l.378 1.895-.496.1-.395-1.977c-.04-.19-.111-.31-.221-.362a.565.565 0 00-.367-.037.69.69 0 00-.446.285c-.111.152-.136.377-.077.67l.33 1.656-.487.098-.371-1.858c-.04-.193-.09-.33-.154-.408-.098-.118-.248-.158-.446-.118a.717.717 0 00-.451.308c-.121.168-.143.438-.071.803l.303 1.51-.48.096-.57-2.849zm6.489-.336a1.265 1.265 0 00-.29-.436c-.2-.184-.446-.226-.74-.128a.727.727 0 00-.455.406.927.927 0 00-.035.66l1.52-.502zm-.523-1.025c.21.03.39.103.533.217a1.3 1.3 0 01.344.426c.07.117.15.317.24.594l-2.003.66c.1.278.24.482.418.61.179.129.397.15.653.067a.772.772 0 00.56-.81l.455-.15a.993.993 0 01-.008.379 1.258 1.258 0 01-.126.38 1.14 1.14 0 01-.427.449c-.1.064-.222.119-.362.165a1.21 1.21 0 01-.99-.088c-.32-.172-.554-.481-.702-.931-.146-.443-.145-.841.002-1.196.148-.354.414-.595.799-.723.198-.065.4-.082.614-.05zm1.054-.338l.424-.186.165.377c.057-.21.141-.379.253-.508.112-.13.253-.233.426-.308.377-.165.69-.145.936.061.136.112.263.301.38.57l.744 1.705-.454.2-.732-1.677a.988.988 0 00-.244-.36c-.152-.132-.332-.152-.54-.06a.94.94 0 00-.247.145.74.74 0 00-.228.36.757.757 0 00-.027.335c.02.104.066.242.142.416l.608 1.393-.446.194-1.16-2.657zm2.61-2.141l.44-.224.365.724.414-.21.18.357-.414.209.856 1.69c.046.09.107.136.184.136a.46.46 0 00.184-.06 1.085 1.085 0 00.146-.087l.175.346c-.042.04-.089.077-.138.11a2.214 2.214 0 01-.17.099c-.203.102-.367.12-.492.054a.787.787 0 01-.316-.351l-.865-1.714-.352.178-.178-.357.35-.175-.369-.725zm5.696-.92l-1.494-1.108.466 1.814 1.028-.706zm-2.06-1.436l.503-.345 3.444 2.465-.487.335-1.007-.756-1.298.89.319 1.227-.456.312-1.018-4.128zm4.262 1.001c.239.062.465-.007.675-.205a.665.665 0 00.202-.593c-.028-.24-.167-.493-.416-.757-.253-.265-.493-.412-.723-.437a.695.695 0 00-.583.188.722.722 0 00-.238.613c.019.241.153.495.404.76.214.225.441.368.679.431m-.703-2.33c.099-.02.237-.019.41.005l-1.007-1.066.341-.32 2.743 2.902-.318.303-.279-.293c.041.207.033.394-.026.558a1.14 1.14 0 01-.305.452c-.234.222-.53.313-.888.277-.359-.035-.693-.217-1.002-.545a1.874 1.874 0 01-.521-1.02c-.055-.372.061-.696.352-.97.161-.155.327-.249.5-.283m.877-1.098l.33-.352.3.282a1.616 1.616 0 01-.012-.442.931.931 0 01.254-.51c.158-.17.326-.267.507-.292a.903.903 0 01.358.038 1.05 1.05 0 01.009-.515c.045-.157.13-.303.255-.437.268-.284.552-.38.853-.292.164.05.339.161.526.336l1.409 1.322-.347.37-1.47-1.379c-.141-.132-.272-.189-.39-.167a.575.575 0 00-.321.184.7.7 0 00-.198.494c-.001.188.107.384.326.59l1.23 1.155-.338.36-1.382-1.295c-.142-.135-.263-.217-.362-.243-.15-.039-.293.015-.431.163a.72.72 0 00-.188.514c0 .207.139.44.41.695l1.123 1.052-.334.356-2.117-1.987zm2.944-3.211l.306-.391 2.272 1.785-.306.389-2.272-1.783zm-.858-.675l.305-.39.436.342-.307.39-.434-.343zm1.525-.311l.262-.383.34.232a1.292 1.292 0 01-.056-.568c.025-.169.091-.33.196-.484.233-.34.51-.489.827-.446.175.023.383.117.625.282l1.537 1.05-.278.41-1.51-1.032a.964.964 0 00-.399-.177c-.198-.03-.36.05-.489.236a1.022 1.022 0 00-.132.255.731.731 0 000 .425.72.72 0 00.154.3c.07.077.184.17.34.275l1.255.857-.276.404-2.396-1.636zm1.699-2.463l.251-.428 2.488 1.466-.252.428-2.487-1.466zm-.94-.555l.251-.427.476.28-.252.428-.476-.28zm3.384.145c.15.06.282.08.39.058.198-.04.366-.199.506-.475a.989.989 0 00.116-.488.39.39 0 00-.23-.352.311.311 0 00-.33.021 2.056 2.056 0 00-.314.314l-.266.308c-.17.196-.313.33-.435.403a.612.612 0 01-.632.037.824.824 0 01-.458-.569c-.061-.257-.015-.534.138-.836.202-.397.46-.623.778-.68a.83.83 0 01.55.08l-.21.41a.568.568 0 00-.321-.03c-.165.045-.312.194-.44.446-.086.167-.12.311-.1.43a.328.328 0 00.182.256c.112.058.23.046.355-.033.075-.045.158-.124.254-.237l.219-.257c.238-.28.419-.456.545-.529.197-.113.415-.109.653.013a.89.89 0 01.462.568c.078.263.025.574-.16.936-.198.39-.425.621-.682.695a1.11 1.11 0 01-.781-.069l.21-.42zm-1.577-3.518l.189-.456.748.312.178-.428.367.153-.177.428 1.749.725c.092.04.169.034.226-.016a.42.42 0 00.1-.163l.027-.072a.992.992 0 00.028-.09l.357.148a1.114 1.114 0 01-.034.177c-.017.058-.04.12-.066.184-.087.21-.2.33-.34.362a.783.783 0 01-.465-.061l-1.775-.737-.15.361-.368-.151.15-.364-.744-.312zm1.387-1.082l.146-.438.475.159c-.08-.067-.164-.194-.25-.378a.723.723 0 01-.037-.552l.017-.042c.01-.02.024-.055.045-.103l.488.163a.604.604 0 00-.036.073c-.009.023-.02.047-.029.075-.078.233-.062.438.046.611.11.177.261.297.456.361l1.584.527-.154.463-2.75-.918zm2.957-1.544a.575.575 0 00.204-.328c.04-.166.04-.338 0-.512a.672.672 0 00-.534-.547l-.38-.091a.85.85 0 01.037.247 1.84 1.84 0 01-.012.28l-.032.296c-.017.177-.012.314.016.413a.434.434 0 00.342.315.41.41 0 00.36-.073zm-1.042-1.306c.013-.113-.017-.196-.084-.251a.448.448 0 00-.176-.076c-.162-.038-.293-.01-.394.088-.1.097-.176.252-.228.467-.058.247-.034.439.075.575a.7.7 0 00.304.193l-.106.443c-.347-.092-.562-.264-.647-.514a1.43 1.43 0 01-.024-.802c.08-.332.208-.586.385-.763.174-.175.396-.231.664-.166l1.626.39c.048.01.09.01.125-.002s.06-.051.076-.116c.005-.021.008-.045.012-.071l.01-.087.35.084a1.25 1.25 0 010 .178 1.79 1.79 0 01-.03.16c-.04.164-.126.267-.259.313a.658.658 0 01-.28.02c.103.127.178.292.23.495.05.204.047.414-.005.632-.063.26-.193.457-.393.585a.808.808 0 01-.655.105c-.26-.062-.444-.193-.549-.39a1.197 1.197 0 01-.11-.706l.083-.784zm-1.504-1.914l.086-.485.798.142.081-.456.392.07-.082.455 1.864.332c.1.017.173-.004.217-.066a.405.405 0 00.063-.181l.012-.076a.645.645 0 00.007-.094l.382.067c.006.058.008.118.004.178s-.01.126-.024.194c-.04.225-.124.366-.254.426a.796.796 0 01-.469.04l-1.89-.336-.07.387-.39-.071.068-.386-.795-.14zm1.099-1.419l.06-.492 2.867.35-.06.492-2.867-.35zm-1.085-.132l.061-.491.548.066-.059.493-.55-.068zm3.487-2.701a1.864 1.864 0 00-.806-.22c-.27-.012-.492.019-.666.097-.274.122-.419.35-.435.682-.016.294.09.514.308.659.221.144.491.225.812.242.308.016.568-.04.781-.163.212-.124.325-.33.341-.62.015-.321-.097-.546-.335-.677m-1.91-.4c.261-.242.633-.352 1.117-.328.467.023.847.156 1.141.397.293.24.426.599.404 1.074-.02.396-.17.704-.452.923-.28.219-.65.317-1.104.294-.486-.024-.868-.166-1.144-.426-.277-.26-.405-.597-.383-1.01.018-.372.16-.678.42-.923m-.19-.796l-.01-.463.413-.008a1.293 1.293 0 01-.374-.43 1.166 1.166 0 01-.122-.51c-.007-.411.13-.691.415-.841.156-.083.379-.126.672-.133l1.862-.037.01.495-1.828.037a1.014 1.014 0 00-.427.087c-.178.09-.265.25-.26.477.003.115.016.21.04.284a.725.725 0 00.247.347.698.698 0 00.299.152c.102.022.249.032.438.028l1.52-.03.009.487-2.904.058zm.498-6.603l.113.553-.578.12-.114-.554z" fill="#000"/><path d="M36.153 8.64c7.207 9.971 6.437 17.68 6.177 25.146l-3.999-.901c-2.525-4.1-5.099-6.907-9.135-9.83-6.028-4.365-13.398-5.005-13.398-5.005 2.82-3.748 10.047-9.154 20.355-9.41" fill="#744143"/><path d="M38.317 37.172c-1.276-1.99-7.133-18.637-29.901-18.044 0 0-7.29 8.655-4.954 22.672 0 0 15.236-14.787 34.855-4.473v-.155z" fill="#744143"/><path d="M48.975 35.266v.25c.038.348-.617.656-.617.656l-.637-.598.29.135s.385.057.524-.088l.19-.491-4.55-1.176s.499-7.237-.385-12.416c-1.2-7.011-4.622-11.3-4.622-11.3l1.23.099c18.994 3.265 21.9 20.376 21.9 20.376 3.028 13.331-5.593 22.592-5.593 22.592s-2.641-3.123-8.483-5.644c-5.477-2.363-11.22-2.218-11.22-2.218s-5.356-.396-10.718 1.986c-1.912.848-6.353 2.704-9.717 5.876 0 0-2.494-2.788-3.47-5.395 0 0 3.134-3.712 7.094-6.092.337-.203 6.06 3.227 17.35 1.157l2.005-.462s6.624-2.472 11.413-4.164l.656.385 1.543-1.851-3.82-1.158" fill="#00A2E5"/><path d="M6.913 52.48c.232-.849 4.386-7.279 12.896-12.686 0 0 5.8 3.26 16.42 1.771l.233-.13c.25-.154.132.503.56.153 1.06-.868 2.569-2.498 2.569-2.498-1.162-.363-8.177-4.139-16.157-3.923 0 0-10.491-.057-19.51 8.714 0 0 .67 4.403 2.989 8.6" fill="#744143"/><path d="M55.71 54.576c-1.383-1.235-4.848-4.146-8.76-5.624-6.363-2.402-13.993-2.635-19.741 0-4.35 1.993-8.256 4.727-9.397 5.777 3.353 3.42 8.163 5.636 8.163 5.636 8.843 4.296 18.142 1.485 21.746-.153 3.346-1.524 6.584-4.145 7.99-5.636" fill="#5AAD41"/></g></svg>